<?xml version="1.0" encoding="UTF-8" standalone="no"?>
<!DOCTYPE svg PUBLIC "-//W3C//DTD SVG 1.1//EN" "http://www.w3.org/Graphics/SVG/1.1/DTD/svg11.dtd">
<svg width="100%" height="100%" viewBox="0 0 152 172" version="1.1" xmlns="http://www.w3.org/2000/svg" xmlns:xlink="http://www.w3.org/1999/xlink" xml:space="preserve" xmlns:serif="http://www.serif.com/" style="fill-rule:evenodd;clip-rule:evenodd;stroke-linejoin:round;stroke-miterlimit:2;">
    <path d="M140.261,34.739L86.539,2.988C79.799,-0.996 71.396,-0.996 64.657,2.988L10.941,34.739C4.132,38.818 -0.035,46.209 0,54.147L0,117.649C0,125.649 4.172,133.043 10.941,137.05L64.657,168.801C71.395,172.788 79.8,172.788 86.539,168.801L140.261,137.05C147.066,132.97 151.229,125.583 151.195,117.649L151.195,54.147C151.195,46.141 147.03,38.746 140.261,34.739ZM73.955,78.414C70.56,80.428 68.45,84.166 68.45,88.173L68.45,151.853C68.45,152.87 67.371,153.503 66.512,152.994L18.082,124.37C15.745,122.989 14.302,120.419 14.302,117.649L14.302,54.147C14.302,51.371 15.745,48.807 18.082,47.419L71.811,15.668C74.146,14.288 77.056,14.288 79.391,15.668L127.815,44.292C128.213,44.535 128.457,44.97 128.457,45.436C128.457,45.903 128.213,46.338 127.815,46.581L73.955,78.414Z" style="fill:#f90;"/>
</svg>
