<?xml version="1.0" encoding="UTF-8" standalone="no"?>
<!DOCTYPE svg PUBLIC "-//W3C//DTD SVG 1.1//EN" "http://www.w3.org/Graphics/SVG/1.1/DTD/svg11.dtd">
<svg width="100%" height="100%" viewBox="0 0 172 172" version="1.1" xmlns="http://www.w3.org/2000/svg" xmlns:xlink="http://www.w3.org/1999/xlink" xml:space="preserve" xmlns:serif="http://www.serif.com/" style="fill-rule:evenodd;clip-rule:evenodd;stroke-linejoin:round;stroke-miterlimit:2;">
    <style type="text/css">
        path { fill: #ff9900; }

        @media (prefers-color-scheme: dark) {
            path { fill: #ffffff; }
        }

        @media (forced-colors: active) {
            path { fill: canvasText; }
        }
    </style>
    <path d="M150.261,34.739L96.539,2.988C89.799,-0.996 81.396,-0.996 74.657,2.988L20.941,34.739C14.132,38.818 9.965,46.209 10,54.147L10,117.649C10,125.649 14.172,133.043 20.941,137.05L74.657,168.801C81.395,172.788 89.8,172.788 96.539,168.801L150.261,137.05C157.066,132.97 161.229,125.583 161.195,117.649L161.195,54.147C161.195,46.141 157.03,38.746 150.261,34.739ZM83.955,78.414C80.56,80.428 78.45,84.166 78.45,88.173L78.45,151.853C78.45,152.87 77.371,153.503 76.512,152.994L28.082,124.37C25.745,122.989 24.302,120.419 24.302,117.649L24.302,54.147C24.302,51.371 25.745,48.807 28.082,47.419L81.811,15.668C84.146,14.288 87.056,14.288 89.391,15.668L137.815,44.292C138.213,44.535 138.457,44.97 138.457,45.436C138.457,45.903 138.213,46.338 137.815,46.581L83.955,78.414Z"/>
</svg>
