<svg width="100%" height="100%" viewBox="0 0 300 300" version="1.1" xmlns="http://www.w3.org/2000/svg" xml:space="preserve">
   <style type="text/css">

        #console-text {
            fill: #FFFFFF;
        }

        #console-decoration {
            fill: #5C5E64;
        }

        #console {
            fill: #282B34;
        }

        #window-button-fullscreen,
        #window-button-minimize,
        #window-button-close {
            stroke-width: 1.3px;
        }

        #window-button-fullscreen {
            fill: #28C840;
            stroke: #209E32;
        }

        #window-button-minimize {
            fill: #FEBC2E;
            stroke: #C89424;
        }

        #window-button-close {
            fill: #FF5F57;
            stroke: #C94B45;
        }

        #window-decoration {
            fill:url(#window-decoration-light);
        }

        #window {
            fill: #FEFEFE;
        }

        @media (prefers-color-scheme: dark) {

            #console-text {
                fill: #FFFFFF;
            }

            #console-decoration {
                fill: none;
            }

            #console {
                fill: #282B34;
            }

            #window-button-fullscreen,
            #window-button-minimize,
            #window-button-close {
                stroke-width: 1.3px;
            }

            #window-button-fullscreen {
                fill: #28C840;
                stroke: #209E32;
            }

            #window-button-minimize {
                fill: #FEBC2E;
                stroke: #C89424;
            }

            #window-button-close {
                fill: #FF5F57;
                stroke: #C94B45;
            }

            #window-decoration {
                fill:url(#window-decoration-dark);
            }

            #window {
                fill: #282B34;
            }
        }

        @media (forced-colors: active) {

            #console-text {
                fill: Canvas;
            }

            #console-decoration {
                fill:none;
            }

            #console {
                fill: CanvasText;
            }

            #window-button-fullscreen,
            #window-button-minimize,
            #window-button-close {
                stroke-width: 2px;
                stroke: CanvasText;
            }

            #window-button-fullscreen {
                fill: #00FF26;
            }

            #window-button-minimize {
                fill: #FFAE00;
            }

            #window-button-close {
                fill: #FF0C00;
            }

            #window-decoration {
                fill:none;
            }

            #window {
                fill: Canvas;

                stroke-width: 2px;
                stroke: CanvasText;
            }
        }
    </style>
    <g>
        <path id="window-decoration" d="M300,36.9C300,27.573 292.882,20 284.115,20L15.885,20C7.118,20 -0,27.573 -0,36.9L-0,259.98C-0,271.029 8.432,280 18.818,280L281.182,280C291.568,280 300,271.029 300,259.98L300,36.9Z"/>
        <path id="window" d="M300,38.72C300,28.389 292.115,20 282.404,20L17.596,20C7.885,20 -0,28.389 -0,38.72L-0,256.6C-0,269.515 9.855,280 21.995,280L278.005,280C290.145,280 300,269.515 300,256.6L300,38.72Z"/>
        <circle id="window-button-fullscreen" cx="101" cy="48" r="14"/>
        <circle id="window-button-minimize" cx="65" cy="48" r="14"/>
        <circle id="window-button-close" cx="29" cy="48" r="14"/>
        <path id="console" d="M300,76L-0,76L-0,259.6C-0,270.859 9.115,280 20.341,280L279.659,280C290.885,280 300,270.859 300,259.6L300,76Z"/>
        <rect id="console-decoration" x="-0" y="76" width="300" height="1"/>
        <g id="console-text">
            <path d="M51.967,130.23L28.139,161.571L52.218,161.571L51.258,168.206L18.416,168.206L18.416,162.238L42.411,130.898L20.335,130.898L20.335,124.221L51.967,124.221L51.967,130.23Z"/>
            <path d="M83.725,162.864C86.925,162.864 89.449,162.28 91.299,161.111C93.15,159.943 94.075,158.357 94.075,156.355C94.075,154.991 93.817,153.864 93.302,152.974C92.788,152.083 91.78,151.27 90.277,150.533C88.774,149.795 86.507,149.037 83.475,148.258C80.192,147.424 77.494,146.505 75.379,145.504C73.264,144.502 71.623,143.195 70.455,141.581C69.286,139.967 68.702,137.923 68.702,135.446C68.702,132.971 69.405,130.808 70.81,128.957C72.214,127.108 74.204,125.682 76.777,124.68C79.35,123.679 82.348,123.177 85.77,123.177C92.169,123.177 97.594,124.833 102.046,128.144L98.624,133.36C96.759,132.108 94.812,131.148 92.781,130.481C90.75,129.813 88.469,129.479 85.937,129.479C82.821,129.479 80.54,129.952 79.093,130.898C77.646,131.844 76.923,133.165 76.923,134.863C76.923,136.087 77.264,137.088 77.945,137.867C78.627,138.646 79.761,139.356 81.346,139.995C82.933,140.636 85.284,141.386 88.399,142.249C91.571,143.111 94.172,144.072 96.203,145.129C98.234,146.186 99.82,147.576 100.96,149.302C102.1,151.026 102.671,153.224 102.671,155.895C102.671,158.899 101.795,161.404 100.042,163.407C98.29,165.409 95.98,166.884 93.115,167.83C90.249,168.776 87.119,169.249 83.725,169.249C79.969,169.249 76.631,168.7 73.71,167.6C70.789,166.501 68.271,165.034 66.157,163.198L70.58,158.107C72.36,159.582 74.37,160.743 76.61,161.592C78.849,162.44 81.221,162.864 83.725,162.864Z"/>
            <path d="M126.417,129.938C128.141,127.74 130.221,126.064 132.655,124.91C135.09,123.755 137.629,123.177 140.271,123.177C144.416,123.177 147.512,124.304 149.557,126.558C151.601,128.811 152.624,132.024 152.624,136.198L152.624,168.206L144.611,168.206L144.611,136.907C144.611,134.292 144.048,132.386 142.921,131.19C141.795,129.994 140.006,129.396 137.559,129.396C135.389,129.396 133.323,130.077 131.361,131.441C129.4,132.804 127.751,134.459 126.417,136.406L126.417,168.206L118.404,168.206L118.404,106.61L126.417,105.734L126.417,129.938Z"/>
            <path d="M163.933,167.079L201.533,109.073L206.457,111.993L168.732,170L163.933,167.079ZM174.115,109.656C176.62,109.656 178.79,110.248 180.625,111.43C182.461,112.613 183.859,114.219 184.819,116.251C185.779,118.281 186.259,120.521 186.259,122.969C186.259,125.417 185.779,127.664 184.819,129.709C183.859,131.754 182.461,133.381 180.625,134.591C178.79,135.801 176.62,136.406 174.115,136.406C171.611,136.406 169.434,135.801 167.585,134.591C165.734,133.381 164.316,131.754 163.328,129.709C162.34,127.664 161.846,125.417 161.846,122.969C161.846,120.521 162.333,118.281 163.307,116.251C164.281,114.219 165.699,112.613 167.564,111.43C169.427,110.248 171.611,109.656 174.115,109.656ZM174.115,114.915C172.446,114.915 171.118,115.596 170.13,116.96C169.142,118.323 168.649,120.326 168.649,122.969C168.649,125.556 169.142,127.58 170.13,129.041C171.118,130.502 172.446,131.232 174.115,131.232C175.784,131.232 177.099,130.544 178.059,129.166C179.018,127.789 179.499,125.723 179.499,122.969C179.499,120.215 179.025,118.184 178.08,116.876C177.134,115.569 175.812,114.915 174.115,114.915ZM197.151,141.957C199.655,141.957 201.825,142.555 203.661,143.751C205.498,144.948 206.895,146.554 207.855,148.572C208.815,150.588 209.295,152.835 209.295,155.311C209.295,157.759 208.808,159.998 207.835,162.029C206.86,164.061 205.463,165.681 203.64,166.891C201.818,168.101 199.655,168.707 197.151,168.707C194.647,168.707 192.47,168.101 190.62,166.891C188.77,165.681 187.351,164.061 186.364,162.029C185.376,159.998 184.882,157.759 184.882,155.311C184.882,152.863 185.369,150.623 186.343,148.593C187.316,146.561 188.735,144.948 190.599,143.751C192.463,142.555 194.647,141.957 197.151,141.957ZM197.151,147.215C195.482,147.215 194.153,147.889 193.166,149.239C192.178,150.588 191.684,152.612 191.684,155.311C191.684,157.87 192.178,159.88 193.166,161.341C194.153,162.802 195.482,163.532 197.151,163.532C198.821,163.532 200.134,162.844 201.095,161.466C202.055,160.089 202.534,158.037 202.534,155.311C202.534,152.529 202.062,150.484 201.116,149.176C200.169,147.869 198.848,147.215 197.151,147.215Z"/>
        </g>
    </g>
    <defs>
        <linearGradient id="window-decoration-light" x1="0" y1="0" x2="1" y2="0" gradientUnits="userSpaceOnUse" gradientTransform="matrix(2.04516e-14,334,-55.8646,3.42072e-15,250,43)"><stop offset="0" style="stop-color:#000000;stop-opacity:0.15"/><stop offset="1" style="stop-color:#000000;stop-opacity:1"/>
        </linearGradient>

        <linearGradient id="window-decoration-dark" x1="0" y1="0" x2="1" y2="0" gradientUnits="userSpaceOnUse" gradientTransform="matrix(2.04516e-14,334,-55.8646,3.42072e-15,250,43)"><stop offset="0" style="stop-color:#3C3D3F;stop-opacity:1"/><stop offset="1" style="stop-color:#3C3D3F;stop-opacity:1"/>
        </linearGradient>
    </defs>
</svg>