<svg role="img" viewBox="0 0 24 24" version="1.1" xmlns="http://www.w3.org/2000/svg">
    <path fill="#326ce5" d="M11.917,0.359C11.705,0.369 11.497,0.422 11.305,0.513L2.962,4.5C2.525,4.709 2.206,5.104 2.098,5.573L0.04,14.528C-0.056,14.945 0.022,15.383 0.257,15.742C0.285,15.785 0.315,15.827 0.347,15.868L6.122,23.048C6.425,23.424 6.885,23.644 7.37,23.644L16.631,23.641C17.116,23.642 17.576,23.423 17.879,23.047L23.652,15.866C23.954,15.489 24.068,14.996 23.96,14.526L21.898,5.571C21.79,5.102 21.472,4.707 21.035,4.498L12.69,0.513C12.45,0.398 12.184,0.345 11.917,0.359Z" />
    <path fill="#ffffff" d="M11.999,3.406C11.724,3.406 11.5,3.654 11.5,3.961C11.5,3.966 11.501,3.97 11.501,3.975C11.501,4.016 11.499,4.067 11.5,4.103C11.507,4.28 11.545,4.415 11.568,4.578C11.61,4.926 11.646,5.215 11.624,5.484C11.603,5.585 11.528,5.678 11.462,5.742L11.45,5.953C11.15,5.978 10.849,6.023 10.547,6.092C9.25,6.386 8.134,7.054 7.284,7.956C7.229,7.918 7.132,7.849 7.104,7.828C7.014,7.84 6.924,7.868 6.807,7.799C6.584,7.649 6.38,7.441 6.134,7.191C6.021,7.071 5.939,6.957 5.805,6.842C5.775,6.816 5.728,6.78 5.694,6.753C5.589,6.67 5.466,6.626 5.346,6.622C5.193,6.617 5.045,6.677 4.948,6.798C4.776,7.014 4.831,7.344 5.071,7.535C5.073,7.537 5.076,7.538 5.078,7.54C5.111,7.567 5.152,7.601 5.182,7.623C5.324,7.728 5.454,7.782 5.596,7.865C5.895,8.05 6.142,8.203 6.339,8.387C6.415,8.469 6.429,8.613 6.439,8.675L6.599,8.818C5.742,10.108 5.345,11.701 5.58,13.324L5.371,13.384C5.316,13.456 5.238,13.568 5.156,13.601C4.899,13.682 4.61,13.712 4.261,13.748C4.097,13.762 3.956,13.754 3.782,13.787C3.744,13.794 3.69,13.808 3.648,13.818C3.647,13.818 3.646,13.818 3.644,13.819C3.642,13.819 3.639,13.82 3.637,13.821C3.342,13.892 3.153,14.163 3.214,14.429C3.275,14.696 3.563,14.858 3.859,14.794C3.861,14.794 3.864,14.793 3.866,14.793C3.869,14.792 3.872,14.791 3.876,14.79C3.917,14.781 3.969,14.771 4.005,14.761C4.176,14.715 4.299,14.648 4.453,14.589C4.783,14.471 5.057,14.372 5.324,14.333C5.435,14.324 5.552,14.402 5.611,14.434L5.828,14.397C6.329,15.95 7.379,17.206 8.709,17.993L8.618,18.211C8.651,18.295 8.687,18.41 8.662,18.493C8.565,18.745 8.399,19.01 8.21,19.306C8.119,19.442 8.025,19.548 7.942,19.705C7.923,19.742 7.897,19.8 7.878,19.839C7.75,20.114 7.844,20.43 8.091,20.549C8.339,20.668 8.647,20.542 8.78,20.267C8.78,20.267 8.781,20.266 8.781,20.266C8.781,20.266 8.781,20.265 8.781,20.265C8.8,20.226 8.827,20.175 8.843,20.138C8.914,19.976 8.937,19.837 8.987,19.68C9.119,19.348 9.192,19 9.374,18.783C9.424,18.724 9.505,18.701 9.589,18.678L9.702,18.473C10.861,18.918 12.158,19.038 13.454,18.743C13.75,18.676 14.035,18.589 14.311,18.485C14.343,18.542 14.402,18.65 14.418,18.677C14.503,18.705 14.596,18.719 14.673,18.832C14.809,19.064 14.902,19.339 15.015,19.672C15.065,19.829 15.089,19.967 15.16,20.13C15.176,20.166 15.203,20.218 15.222,20.258C15.355,20.534 15.664,20.66 15.913,20.54C16.159,20.422 16.253,20.105 16.125,19.831C16.106,19.791 16.08,19.734 16.06,19.696C15.977,19.54 15.883,19.435 15.792,19.298C15.603,19.002 15.446,18.757 15.349,18.505C15.309,18.376 15.356,18.295 15.388,18.211C15.369,18.189 15.328,18.067 15.304,18.009C16.686,17.193 17.705,15.891 18.183,14.387C18.248,14.398 18.36,14.418 18.397,14.425C18.472,14.375 18.541,14.311 18.676,14.321C18.943,14.36 19.217,14.459 19.547,14.577C19.701,14.636 19.824,14.705 19.995,14.75C20.031,14.76 20.083,14.769 20.124,14.778C20.128,14.779 20.131,14.78 20.134,14.781C20.136,14.782 20.139,14.782 20.141,14.782C20.438,14.846 20.725,14.684 20.786,14.417C20.847,14.151 20.658,13.88 20.363,13.809C20.321,13.799 20.26,13.783 20.218,13.775C20.044,13.742 19.903,13.75 19.739,13.737C19.39,13.7 19.101,13.67 18.844,13.589C18.739,13.549 18.665,13.424 18.628,13.373L18.427,13.314C18.531,12.557 18.503,11.77 18.322,10.982C18.139,10.187 17.817,9.46 17.386,8.819C17.438,8.772 17.536,8.686 17.563,8.66C17.571,8.571 17.564,8.477 17.657,8.378C17.854,8.193 18.101,8.04 18.4,7.856C18.542,7.772 18.673,7.719 18.815,7.614C18.847,7.59 18.891,7.552 18.925,7.525C19.164,7.334 19.22,7.004 19.048,6.789C18.876,6.573 18.542,6.553 18.303,6.744C18.269,6.771 18.222,6.806 18.192,6.832C18.058,6.948 17.975,7.062 17.862,7.181C17.616,7.432 17.412,7.64 17.189,7.791C17.092,7.847 16.95,7.828 16.886,7.824L16.696,7.959C15.613,6.824 14.138,6.097 12.55,5.956C12.546,5.89 12.54,5.77 12.538,5.733C12.473,5.671 12.395,5.618 12.375,5.484C12.353,5.215 12.39,4.926 12.432,4.578C12.455,4.415 12.493,4.28 12.5,4.103C12.501,4.063 12.499,4.004 12.499,3.961C12.499,3.654 12.275,3.406 11.999,3.406L11.999,3.406ZM11.374,7.28L11.226,9.899L11.215,9.905C11.205,10.139 11.012,10.326 10.776,10.326C10.679,10.326 10.589,10.295 10.516,10.242L10.512,10.244L8.364,8.721C9.024,8.072 9.869,7.592 10.842,7.371C11.019,7.331 11.197,7.301 11.374,7.28ZM12.626,7.28C13.762,7.419 14.813,7.934 15.618,8.722L13.484,10.235L13.476,10.232C13.287,10.371 13.02,10.336 12.872,10.151C12.812,10.075 12.78,9.986 12.776,9.896L12.774,9.895L12.626,7.28ZM7.585,9.7L9.546,11.454L9.544,11.465C9.721,11.619 9.747,11.886 9.6,12.071C9.539,12.147 9.458,12.198 9.371,12.221L9.369,12.23L6.855,12.955C6.727,11.785 7.003,10.648 7.585,9.7ZM16.4,9.701C16.692,10.173 16.912,10.701 17.044,11.273C17.173,11.838 17.206,12.402 17.152,12.947L14.626,12.219L14.623,12.208C14.397,12.147 14.258,11.916 14.311,11.686C14.332,11.591 14.383,11.511 14.451,11.452L14.45,11.447L16.4,9.701L16.4,9.701ZM11.597,11.59L12.401,11.59L12.9,12.214L12.721,12.993L11.999,13.34L11.276,12.992L11.097,12.213L11.597,11.59ZM14.173,13.726C14.207,13.724 14.241,13.727 14.275,13.733L14.279,13.728L16.879,14.168C16.499,15.237 15.77,16.163 14.797,16.783L13.788,14.345L13.791,14.341C13.698,14.125 13.791,13.872 14.005,13.77C14.059,13.743 14.116,13.729 14.173,13.726L14.173,13.726ZM9.806,13.737C10.004,13.739 10.182,13.877 10.228,14.079C10.25,14.174 10.239,14.267 10.204,14.35L10.211,14.36L9.212,16.774C8.278,16.174 7.535,15.277 7.137,14.176L9.715,13.739L9.719,13.744C9.748,13.739 9.777,13.736 9.806,13.737L9.806,13.737ZM11.983,14.794C12.053,14.792 12.123,14.806 12.189,14.838C12.277,14.88 12.344,14.946 12.387,15.026L12.396,15.026L13.667,17.322C13.502,17.377 13.333,17.425 13.159,17.464C12.187,17.685 11.219,17.618 10.341,17.319L11.609,15.027L11.611,15.027C11.687,14.884 11.831,14.8 11.983,14.794Z" />
</svg>