<svg role="img" viewBox="0 0 24 24" xmlns="http://www.w3.org/2000/svg">
    <g>
        <path fill="#C9781F" d="M4.688,9.432C4.688,9.432 6.412,7.933 11.517,7.933C16.2,7.933 17.516,8.993 18.852,9.432L11.879,12.835L4.688,9.432Z" />
        <path fill="#F6D2A2" d="M3.959,13.945C3.991,14.595 4.642,14.294 4.936,14.091C5.216,13.898 5.298,14.058 5.322,13.677C5.339,13.427 5.367,13.177 5.353,12.925C4.93,12.887 4.47,12.988 4.123,13.239C3.945,13.37 3.61,13.782 3.96,13.945" />
        <path fill="#C6B198" d="M3.959,13.945C4.054,13.91 4.155,13.885 4.219,13.799" />
        <path fill="#37ABC8" d="M5.463,6.196C2.97,5.495 4.824,2.329 6.826,3.632L5.463,6.196ZM16.541,3.394C18.514,2.01 20.298,5.133 18.004,5.919L16.541,3.394Z" />
        <path fill="#F6D2A2" d="M16.965,21.95C17.467,22.26 18.383,23.196 17.631,23.65C16.908,24.311 16.504,22.925 15.87,22.733C16.143,22.363 16.489,22.025 16.965,21.95L16.965,21.95ZM8.01,23.008C7.421,23.099 7.09,23.629 6.599,23.898C6.137,24.174 5.96,23.81 5.919,23.737C5.845,23.704 5.852,23.767 5.741,23.655C5.312,22.979 6.187,22.486 6.643,22.15C7.277,22.022 7.675,22.572 8.009,23.008L8.01,23.008Z" />
        <path fill="#077E91" d="M5.567,5.321C5.238,5.149 4.997,4.912 5.198,4.532C5.384,4.18 5.731,4.218 6.059,4.392L5.567,5.321ZM17.484,4.991C17.813,4.818 18.055,4.582 17.854,4.202C17.667,3.85 17.321,3.888 16.992,4.062L17.484,4.991Z" />
        <path fill="#F6D2A2" d="M19.749,13.862C19.717,14.513 19.066,14.212 18.772,14.008C18.492,13.815 18.41,13.976 18.386,13.595C18.37,13.345 18.341,13.094 18.355,12.843C18.778,12.804 19.238,12.905 19.585,13.157C19.763,13.287 20.098,13.7 19.748,13.862" />
        <path fill="#C6B198" d="M19.749,13.862C19.654,13.827 19.554,13.802 19.489,13.717" />
        <path fill="#37ABC8" d="M11.604,2.078C14.1,2.078 16.44,2.435 17.66,4.83C18.755,7.514 18.366,10.409 18.533,13.246C18.676,15.682 18.994,18.496 17.862,20.753C16.672,23.129 13.697,23.726 11.246,23.638C9.321,23.57 6.996,22.942 5.909,21.186C4.635,19.125 5.238,16.061 5.331,13.769C5.44,11.053 4.594,8.328 5.487,5.671C6.414,2.914 8.914,2.291 11.604,2.078" />
        <path fill="#FFF" d="M12.045,5.424C12.493,8.026 16.751,7.338 16.14,4.715C15.591,2.362 11.896,3.014 12.045,5.424M6.956,5.845C7.537,8.11 11.168,7.53 11.031,5.258C10.868,2.537 6.401,3.062 6.956,5.845M12.871,8.457C12.873,8.805 12.953,9.145 12.884,9.535C12.798,9.698 12.628,9.715 12.482,9.781C12.28,9.75 12.109,9.616 12.029,9.428C11.977,9.017 12.048,8.62 12.061,8.209L12.871,8.457Z" />
        <ellipse fill="#000" cx="7.958" cy="5.476" rx="0.613" ry="0.663" />
        <ellipse fill="#FFF" cx="8.237" cy="5.626" rx="0.145" ry="0.169" />
        <ellipse fill="#000" cx="13.095" cy="5.311" rx="0.603" ry="0.663" />
        <ellipse fill="#FFF" cx="13.37" cy="5.46" rx="0.142" ry="0.169" />
        <path fill="#FFF" d="M11.119,8.51C10.852,9.157 11.268,10.452 11.994,9.496C11.942,9.085 12.014,8.688 12.027,8.277L11.119,8.51Z" />
        <path fill="#F6D2A2" d="M11.077,7.263C10.578,7.305 10.17,7.897 10.43,8.366C10.773,8.985 11.539,8.311 12.017,8.374C12.566,8.385 13.016,8.954 13.457,8.477C13.948,7.946 13.246,7.429 12.697,7.198L11.077,7.263Z" />
        <path fill="#EF9325" d="M4.688,9.432C4.688,9.432 4.845,11.14 4.835,11.876C4.824,12.612 5.53,12.147 5.567,13.305C5.603,14.463 5.139,14.243 4.894,14.81C4.649,15.376 4.483,18.03 4.483,18.03C4.483,18.03 4.734,18.526 5.518,18.972C6.303,19.419 7.565,19.669 8.656,19.62C9.747,19.571 10.528,19.337 10.723,19.208C10.918,19.079 11.242,18.67 11.364,18.354C11.485,18.038 11.74,15.435 11.722,13.945C11.704,12.455 11.458,11.081 11.458,11.081L4.688,9.432Z" />
        <path fill="#E5E5E5" d="M11.605,16.685C8.389,17.043 4.658,16.052 4.658,16.052C4.658,16.052 4.712,15.047 4.954,14.693C8.299,15.728 11.673,15.4 11.673,15.4C11.723,15.869 11.688,16.242 11.605,16.685L11.605,16.685ZM11.201,18.666C7.985,19.024 4.484,17.994 4.484,17.994C4.484,17.994 4.473,17.028 4.6,16.604C7.945,17.639 11.518,17.381 11.518,17.381C11.487,17.89 11.416,18.392 11.201,18.666L11.201,18.666Z" />
        <path fill="#EF9325" d="M18.852,9.432L18.842,11.876C18.852,12.612 18.414,12.147 18.376,13.305C18.339,14.463 18.809,14.243 19.057,14.81C19.305,15.376 19.473,18.03 19.473,18.03C19.473,18.03 19.219,18.526 18.425,18.972C17.631,19.419 16.354,19.669 15.248,19.62C14.142,19.571 13.353,19.337 13.155,19.208C12.957,19.079 12.63,18.67 12.507,18.354C12.383,18.038 12.126,15.435 12.144,13.945C12.162,12.455 12.411,11.081 12.411,11.081L18.852,9.432Z" />
        <path fill="#E5E5E5" d="M12.262,16.685C15.518,17.043 19.298,16.052 19.298,16.052C19.298,16.052 19.242,15.047 18.998,14.693C15.611,15.728 12.194,15.4 12.194,15.4C12.144,15.869 12.179,16.242 12.263,16.685L12.262,16.685ZM12.672,18.666C15.928,19.024 19.474,17.994 19.474,17.994C19.474,17.994 19.485,17.028 19.356,16.604C15.969,17.639 12.352,17.381 12.352,17.381C12.382,17.89 12.455,18.392 12.672,18.666L12.672,18.666Z" />
        <path fill="#D2E261" d="M20.151,12.564C20.05,12.755 19.85,12.847 19.704,12.77L19.587,12.708C19.441,12.631 19.405,12.413 19.506,12.223L21.785,7.927C21.886,7.737 22.086,7.645 22.232,7.722L22.349,7.784C22.495,7.861 22.531,8.078 22.43,8.269L20.151,12.564Z" />
        <path fill="#000" d="M19.075,14.593C19.016,14.704 18.85,14.731 18.704,14.654L18.587,14.592C18.441,14.515 18.371,14.362 18.43,14.251L19.499,12.236C19.558,12.125 19.724,12.097 19.87,12.175L19.987,12.236C20.133,12.314 20.203,12.466 20.144,12.577L19.075,14.593Z" />
        <path fill="#9B9B9B" d="M20.026,12.163L19.909,12.101C19.763,12.024 19.614,12.02 19.575,12.092L19.507,12.221C19.545,12.149 19.695,12.153 19.841,12.23L19.957,12.292C20.103,12.369 20.191,12.49 20.152,12.562L20.221,12.433C20.259,12.361 20.172,12.24 20.026,12.163Z" />
        <path fill="#F6D2A2" d="M19.198,12.965C19.458,13.062 19.608,13.303 19.533,13.503C19.459,13.704 19.187,13.788 18.928,13.692C18.668,13.595 18.518,13.354 18.593,13.153C18.668,12.953 18.939,12.869 19.198,12.965Z" />
        <path fill="#D2E261" d="M3.639,12.633C3.731,12.829 3.927,12.93 4.077,12.859L4.196,12.803C4.345,12.732 4.392,12.517 4.299,12.322L2.22,7.927C2.128,7.732 1.932,7.631 1.783,7.701L1.663,7.757C1.514,7.828 1.468,8.043 1.56,8.238L3.639,12.633Z" />
        <path fill="#000" d="M4.621,14.709C4.675,14.823 4.84,14.858 4.988,14.787L5.107,14.731C5.257,14.661 5.334,14.511 5.28,14.398L4.306,12.336C4.252,12.222 4.087,12.187 3.939,12.257L3.819,12.314C3.67,12.384 3.593,12.534 3.646,12.647L4.621,14.709Z" />
        <path fill="#9B9B9B" d="M3.783,12.239L3.903,12.182C4.052,12.112 4.201,12.114 4.237,12.188L4.299,12.32C4.264,12.246 4.115,12.244 3.965,12.314L3.845,12.37C3.696,12.441 3.603,12.558 3.638,12.631L3.576,12.499C3.541,12.426 3.634,12.309 3.783,12.239L3.783,12.239Z" />
        <path fill="#F6D2A2" d="M4.928,13.748C4.668,13.844 4.397,13.76 4.322,13.56C4.248,13.359 4.398,13.118 4.657,13.021C4.917,12.925 5.188,13.009 5.262,13.21C5.337,13.41 5.187,13.651 4.928,13.748Z" />
        <path fill="#960000" d="M5.756,7.173C5.656,7.353 5.423,7.414 5.233,7.31L5.015,7.191C4.826,7.087 4.753,6.856 4.852,6.676L7.119,2.56C7.218,2.38 7.452,2.318 7.641,2.422L7.859,2.542C8.048,2.646 8.097,2.84 8.022,3.056C7.228,5.344 5.756,7.173 5.756,7.173Z" />
        <path fill="#595959" d="M6.355,4.821C7.045,3.569 7.497,2.493 7.39,2.371L7.392,2.366C7.389,2.364 7.386,2.363 7.383,2.362L7.382,2.361C6.323,1.788 4.898,2.356 4.194,3.634C3.49,4.913 3.773,6.419 4.825,7.005L4.825,7.005C4.829,7.007 4.832,7.009 4.835,7.011L4.837,7.006C4.998,7.032 5.666,6.073 6.355,4.821L6.355,4.821Z" />
        <path fill="#960000" d="M17.714,7.181C17.808,7.364 18.04,7.432 18.232,7.334L18.454,7.22C18.646,7.121 18.726,6.893 18.632,6.71L16.485,2.53C16.391,2.347 16.159,2.279 15.967,2.378L15.746,2.492C15.553,2.59 15.499,2.783 15.568,3.001C16.295,5.311 17.714,7.181 17.714,7.181Z" />
        <path fill="#595959" d="M17.183,4.814C16.53,3.543 16.108,2.454 16.22,2.335L16.217,2.33C16.22,2.329 16.224,2.328 16.226,2.326L16.228,2.326C17.304,1.783 18.711,2.391 19.378,3.69C20.045,4.989 19.718,6.485 18.649,7.041L18.65,7.042C18.645,7.043 18.643,7.045 18.64,7.047L18.637,7.042C18.475,7.063 17.836,6.086 17.183,4.814L17.183,4.814Z" />
        <path fill="#353535" d="M19.308,4.277C19.308,4.277 18.515,2.294 17.595,1.245C16.676,0.196 7.676,-0.162 6.198,1.245C4.72,2.651 4.163,4.277 4.163,4.277L4.163,3.837C4.163,3.837 4.847,1.906 6.198,0.804C7.55,-0.297 16.431,-0.239 17.577,0.804C18.722,1.848 19.308,3.837 19.308,3.837L19.308,4.277Z" />
        <g fill="#960000">
            <path d="M19.643,4.431C19.49,4.509 19.211,4.27 19.021,3.898C18.83,3.526 18.799,3.16 18.951,3.082C19.104,3.004 19.383,3.242 19.573,3.615C19.764,3.987 19.795,4.352 19.643,4.431Z" />
            <path d="M4.639,3.041C4.789,3.123 4.747,3.488 4.546,3.854C4.344,4.221 4.059,4.451 3.909,4.369C3.758,4.286 3.8,3.921 4.001,3.555C4.203,3.188 4.488,2.958 4.639,3.041Z" />
        </g>
        <g fill="#FFF">
            <path fill-opacity="0.6" d="M15.917,3.859L7.523,3.859C6.016,3.859 6.021,7.858 7.436,8.089L10.362,7.901C10.716,7.901 11.422,6.533 11.555,6.425C11.687,6.318 12.124,6.305 12.296,6.425C12.467,6.546 12.858,7.763 13.212,7.763L16.138,8.089C17.505,7.461 17.16,3.859 15.918,3.859L15.917,3.859Z" />
            <path fill-opacity="0.5" d="M9.752,4.686C8.827,4.665 7.381,4.674 6.591,4.68C6.458,5.114 6.31,5.663 6.384,6.197L9.771,6.2C10.439,6.2 11,6.326 11.524,6.462C11.536,6.446 11.547,6.434 11.556,6.427C11.688,6.319 12.125,6.306 12.296,6.427C12.341,6.458 12.4,6.563 12.47,6.701C12.736,6.758 13.003,6.796 13.281,6.8L16.949,6.803C17.094,6.318 16.987,5.799 16.955,5.311C15.842,5.311 14.072,5.286 13.224,5.286C12.029,5.286 10.986,4.713 9.753,4.686L9.752,4.686Z" />
        </g>
        <path fill="#000" d="M11.014,7.237C10.977,6.374 12.624,6.266 12.819,6.988C13.013,7.709 11.095,7.877 11.014,7.237C10.949,6.726 11.014,7.237 11.014,7.237Z" />
    </g>
</svg>