<svg role="img" viewBox="0 0 24 24" xmlns="http://www.w3.org/2000/svg">
  <path d="M7.037,24L0.019,16.97L0.019,7.03L7.037,-0L16.963,-0L23.981,7.03L23.981,16.97L16.963,24L7.037,24Z" />
  <path fill="#ffc038" d="M7.17,23.641L0.341,16.822L0.341,7.179L7.17,0.359L16.829,0.359L23.659,7.179L23.659,16.822L16.829,23.641L7.17,23.641Z" />
  <path fill="#fff" d="M10.813,8.793C10.82,9.02 10.854,9.248 10.921,9.467C11.702,9.738 12.906,9.756 13.582,9.52C13.656,9.298 13.694,9.067 13.704,8.835C13.31,8.959 12.843,9.015 12.375,9.015C11.813,9.015 11.253,8.934 10.813,8.793ZM13.486,7.45C13.411,7.212 13.325,6.999 13.242,6.826C12.9,6.898 12.53,6.933 12.162,6.933C11.84,6.933 11.521,6.906 11.23,6.856C11.155,7.015 11.079,7.204 11.011,7.414C11.718,7.615 12.742,7.656 13.486,7.45Z" />
  <path d="M11.076,9.93C11.234,10.202 11.461,10.45 11.782,10.652C11.782,10.652 11.973,10.805 12.226,10.797C12.477,10.804 12.67,10.652 12.67,10.652C12.97,10.463 13.19,10.234 13.346,9.981C13.047,10.047 12.705,10.08 12.353,10.08C11.918,10.08 11.471,10.03 11.076,9.93ZM12.365,7.922C11.852,7.922 11.338,7.855 10.918,7.736C10.869,7.938 10.831,8.15 10.813,8.367C11.573,8.645 12.867,8.709 13.688,8.408C13.672,8.19 13.637,7.975 13.59,7.772C13.219,7.874 12.792,7.922 12.365,7.922ZM13.395,4.784C13.309,4.589 13.211,4.443 13.211,4.443C13.196,4.427 13.178,4.413 13.159,4.399C13.214,4.266 13.245,4.118 13.245,3.962C13.245,3.52 12.997,3.14 12.64,2.976L12.919,2.009L13.726,1.978C13.755,1.977 13.776,1.954 13.776,1.925C13.775,1.897 13.751,1.876 13.723,1.876L12.882,1.907C12.862,1.908 12.845,1.919 12.837,1.938L12.369,2.897C12.328,2.892 12.288,2.888 12.247,2.888C12.206,2.888 12.166,2.892 12.126,2.898L11.657,1.938C11.649,1.92 11.632,1.908 11.611,1.907L10.771,1.876C10.743,1.876 10.719,1.897 10.718,1.925C10.717,1.954 10.739,1.977 10.768,1.978L11.575,2.009L11.854,2.976C11.498,3.14 11.249,3.52 11.249,3.962C11.249,4.118 11.28,4.266 11.335,4.398C11.316,4.413 11.298,4.427 11.284,4.443C11.284,4.443 11.187,4.589 11.103,4.793C9.504,5.258 5.322,5.843 5.789,7.132C6.307,8.559 9.135,8.122 9.608,7.734C10.266,7.196 10.821,6.692 11.164,6.291C11.194,6.358 11.225,6.419 11.255,6.475C11.858,6.582 12.608,6.582 13.227,6.442C13.249,6.397 13.27,6.346 13.292,6.293C13.637,6.689 14.182,7.181 14.823,7.706C15.295,8.093 18.123,8.53 18.641,7.102C19.102,5.833 15.04,5.245 13.395,4.784Z" />
  <path d="M11.723,11.78L11.787,15.491C11.788,15.548 11.776,15.59 11.751,15.615C11.726,15.641 11.686,15.655 11.628,15.656L10.977,15.667C10.921,15.668 10.879,15.656 10.854,15.631C10.827,15.606 10.814,15.565 10.813,15.508L10.748,11.797C10.747,11.74 10.759,11.698 10.784,11.673C10.809,11.647 10.851,11.634 10.907,11.633L11.558,11.621C11.615,11.62 11.656,11.632 11.683,11.657C11.708,11.682 11.722,11.723 11.723,11.78ZM14.29,11.735L14.355,15.447C14.356,15.503 14.344,15.544 14.32,15.571C14.294,15.597 14.253,15.61 14.197,15.611L13.546,15.622C13.489,15.623 13.447,15.611 13.421,15.587C13.395,15.562 13.382,15.52 13.381,15.464L13.316,11.752C13.315,11.695 13.328,11.654 13.353,11.628C13.377,11.603 13.418,11.589 13.475,11.588L14.126,11.577C14.183,11.576 14.224,11.588 14.25,11.613C14.276,11.638 14.289,11.678 14.29,11.735ZM7.634,20.651L7.027,20.651C6.976,20.651 6.939,20.639 6.916,20.617C6.893,20.594 6.882,20.557 6.882,20.505L6.882,17.872C6.882,17.82 6.893,17.783 6.916,17.759C6.939,17.737 6.976,17.725 7.027,17.725L7.683,17.725C7.727,17.725 7.763,17.734 7.791,17.753C7.819,17.772 7.846,17.804 7.871,17.847L8.237,18.51C8.25,18.534 8.262,18.552 8.271,18.562C8.281,18.573 8.294,18.579 8.31,18.579L8.346,18.579C8.363,18.579 8.376,18.573 8.386,18.562C8.395,18.552 8.406,18.534 8.42,18.51L8.782,17.847C8.806,17.804 8.833,17.772 8.862,17.753C8.89,17.734 8.926,17.725 8.969,17.725L9.629,17.725C9.68,17.725 9.718,17.737 9.741,17.759C9.764,17.783 9.775,17.82 9.775,17.872L9.775,20.505C9.775,20.557 9.764,20.594 9.741,20.617C9.718,20.639 9.68,20.651 9.629,20.651L9.001,20.651C8.95,20.651 8.913,20.639 8.89,20.617C8.867,20.594 8.855,20.557 8.855,20.505L8.855,19.074L8.615,19.517C8.591,19.564 8.562,19.597 8.527,19.617C8.493,19.638 8.451,19.648 8.4,19.648L8.237,19.648C8.185,19.648 8.142,19.638 8.108,19.617C8.075,19.597 8.046,19.564 8.02,19.517L7.781,19.074L7.781,20.505C7.781,20.557 7.769,20.594 7.746,20.617C7.723,20.639 7.685,20.651 7.634,20.651ZM11.868,21.017L11.241,21.017C11.189,21.017 11.151,21.006 11.128,20.983C11.105,20.96 11.094,20.923 11.094,20.87L11.094,20.647C10.779,20.601 10.567,20.507 10.457,20.365C10.348,20.223 10.292,20.05 10.292,19.847L10.292,18.498C10.292,18.373 10.31,18.26 10.348,18.158C10.384,18.057 10.449,17.969 10.543,17.896C10.636,17.823 10.766,17.766 10.931,17.725C11.097,17.685 11.305,17.664 11.558,17.664C11.81,17.664 12.019,17.685 12.183,17.725C12.347,17.766 12.475,17.823 12.57,17.896C12.664,17.969 12.728,18.057 12.765,18.158C12.801,18.26 12.819,18.373 12.819,18.498L12.819,19.847C12.819,19.949 12.807,20.045 12.783,20.133C12.759,20.221 12.717,20.299 12.657,20.367C12.597,20.434 12.516,20.493 12.411,20.542C12.306,20.59 12.174,20.625 12.014,20.647L12.014,20.87C12.014,20.923 12.003,20.96 11.979,20.983C11.956,21.006 11.919,21.017 11.868,21.017ZM11.216,18.647L11.216,19.757C11.216,19.812 11.237,19.857 11.277,19.893C11.317,19.93 11.412,19.948 11.558,19.948C11.705,19.948 11.798,19.93 11.839,19.893C11.88,19.857 11.9,19.812 11.9,19.757L11.9,18.647C11.9,18.596 11.88,18.552 11.839,18.516C11.798,18.48 11.705,18.461 11.558,18.461C11.412,18.461 11.317,18.48 11.277,18.516C11.237,18.552 11.216,18.596 11.216,18.647ZM14.7,20.651L14.041,20.651C13.99,20.651 13.952,20.639 13.929,20.617C13.906,20.594 13.894,20.557 13.894,20.505L13.894,18.51L13.296,18.51C13.244,18.51 13.207,18.498 13.184,18.475C13.162,18.453 13.149,18.414 13.149,18.363L13.149,17.872C13.149,17.82 13.162,17.783 13.184,17.759C13.207,17.737 13.244,17.725 13.296,17.725L15.445,17.725C15.497,17.725 15.534,17.737 15.557,17.759C15.58,17.783 15.591,17.82 15.591,17.872L15.591,18.363C15.591,18.414 15.58,18.453 15.557,18.475C15.534,18.498 15.497,18.51 15.445,18.51L14.847,18.51L14.847,20.505C14.847,20.557 14.836,20.594 14.813,20.617C14.789,20.639 14.752,20.651 14.7,20.651ZM17.37,20.651L16.711,20.651C16.66,20.651 16.622,20.639 16.599,20.617C16.576,20.594 16.564,20.557 16.564,20.505L16.564,18.51L15.966,18.51C15.914,18.51 15.877,18.498 15.854,18.475C15.832,18.453 15.82,18.414 15.82,18.363L15.82,17.872C15.82,17.82 15.832,17.783 15.854,17.759C15.877,17.737 15.914,17.725 15.966,17.725L18.115,17.725C18.167,17.725 18.204,17.737 18.227,17.759C18.25,17.783 18.261,17.82 18.261,17.872L18.261,18.363C18.261,18.414 18.25,18.453 18.227,18.475C18.204,18.498 18.167,18.51 18.115,18.51L17.517,18.51L17.517,20.505C17.517,20.557 17.506,20.594 17.483,20.617C17.46,20.639 17.422,20.651 17.37,20.651Z" />
</svg>