<?xml version="1.0" encoding="UTF-8" standalone="no"?>
<!DOCTYPE svg PUBLIC "-//W3C//DTD SVG 1.1//EN" "http://www.w3.org/Graphics/SVG/1.1/DTD/svg11.dtd">
<svg width="100%" height="100%" viewBox="0 0 512 512" version="1.1" xmlns="http://www.w3.org/2000/svg" xmlns:xlink="http://www.w3.org/1999/xlink" xml:space="preserve" style="fill-rule:evenodd;clip-rule:evenodd;stroke-linejoin:round;stroke-miterlimit:2;">
    <path d="M371.486,164.635L275.542,107.931C263.504,100.814 248.496,100.814 236.461,107.931L140.526,164.635C128.366,171.922 120.924,185.121 120.987,199.299L120.987,312.71C120.987,326.999 128.438,340.204 140.526,347.36L236.461,404.067C248.496,411.187 263.504,411.187 275.542,404.067L371.486,347.36C383.64,340.073 391.076,326.88 391.013,312.71L391.013,199.299C391.013,184.999 383.577,171.794 371.486,164.635ZM253.068,242.638C247.004,246.237 243.236,252.911 243.236,260.067L243.236,373.799C243.236,375.615 241.307,376.746 239.774,375.835L153.279,324.716C149.105,322.248 146.527,317.658 146.527,312.71L146.527,199.299C146.527,194.34 149.105,189.762 153.279,187.282L249.237,130.575C253.407,128.111 258.605,128.111 262.775,130.575L349.258,181.698C349.97,182.132 350.404,182.909 350.404,183.74C350.404,184.576 349.97,185.353 349.258,185.785L253.068,242.638Z" style="fill:#f90;"/>
</svg>
