<svg width="100%" height="100%" viewBox="0 0 60 60" version="1.1" xmlns="http://www.w3.org/2000/svg">
    <path fill="none" stroke-width="1px" stroke="#808080" opacity="0.04" d="M21,59.5L43,59.5C46,59.5 47.749,57.628 48.549,56.716C49.919,55.152 51.263,52.212 50.849,45.909C50.471,40.165 44.916,32.294 44.008,28.844C47.807,25.354 51.388,19.529 47.366,12.335C51.989,-0.862 49.207,0.325 38.369,5.367C35.374,5.595 32.523,5.672 29.638,5.442C24.548,3.09 21.606,1.654 20.023,1.701C18.13,1.757 18.092,5.699 20.229,11.519C20.257,12.012 20.31,12.559 20.228,12.875C17.097,19.566 19.477,25.061 24.013,28.873C22.687,33.22 17.621,40.895 17.274,44.291C17.16,45.302 17.099,46.013 17.046,46.953C16.44,46.102 16.586,44.206 16.444,40.628C16.403,39.605 16.681,36.697 17.445,35.574C19.268,32.896 21.079,29.84 18.023,28.59C16.789,28.086 13.879,28.396 11.29,32.27C9.063,35.977 8.805,42.479 9.268,45.257C10.133,50.447 11.583,56.214 17.138,58.683C17.605,58.891 19,59.5 21,59.5Z" />
</svg>