<svg width="100%" height="100%" viewBox="0 0 16 16" version="1.1" xmlns="http://www.w3.org/2000/svg" xmlns:xlink="http://www.w3.org/1999/xlink" xml:space="preserve" style="fill-rule:evenodd;clip-rule:evenodd;stroke-linejoin:round;stroke-miterlimit:2;">
    <path d="M14.023,3.235L9.019,0.278C8.391,-0.093 7.609,-0.093 6.981,0.278L1.978,3.235C1.344,3.615 0.956,4.304 0.959,5.043L0.959,10.957C0.959,11.702 1.348,12.391 1.978,12.764L6.981,15.721C7.609,16.093 8.391,16.093 9.019,15.721L14.023,12.764C14.656,12.384 15.044,11.696 15.041,10.957L15.041,5.043C15.041,4.297 14.653,3.609 14.023,3.235ZM7.847,7.303C7.531,7.491 7.334,7.839 7.334,8.212L7.334,14.143C7.334,14.238 7.234,14.297 7.154,14.249L2.643,11.583C2.426,11.455 2.291,11.215 2.291,10.957L2.291,5.043C2.291,4.785 2.426,4.546 2.643,4.416L7.647,1.459C7.865,1.331 8.136,1.331 8.353,1.459L12.863,4.125C12.9,4.148 12.923,4.188 12.923,4.232C12.923,4.275 12.9,4.316 12.863,4.338L7.847,7.303Z"/>
</svg>
