<svg width="100%" height="100%" viewBox="0 0 60 60" version="1.1" xmlns="http://www.w3.org/2000/svg">
    <path fill="none" stroke-width="1px" stroke="#808080" opacity="0.04" d="M19.06,60.024L19.008,63.7L44.74,63.7L44.829,60.024C46.584,59.283 47.749,58.128 48.549,57.216C49.919,55.652 51.263,52.712 50.849,46.409C50.471,40.665 44.916,32.794 44.008,29.344C47.807,25.854 51.388,20.029 47.366,12.835C51.989,-0.362 49.207,0.825 38.369,5.867C35.374,6.095 32.523,6.172 29.638,5.942C24.548,3.59 21.606,2.154 20.023,2.201C18.13,2.257 18.092,6.199 20.229,12.019C20.257,12.512 20.31,13.059 20.228,13.375C17.097,20.066 19.477,25.561 24.013,29.373C22.687,33.72 17.621,41.395 17.274,44.791C17.16,45.802 17.099,46.513 17.046,47.453C16.44,46.602 16.586,44.706 16.444,41.128C16.403,40.105 16.681,37.197 17.445,36.074C19.268,33.396 21.079,30.34 18.023,29.09C16.789,28.586 13.879,28.896 11.29,32.77C9.063,36.477 8.805,42.979 9.268,45.757C10.133,50.947 11.583,56.714 17.138,59.183C17.605,59.391 18.221,59.682 19.06,60.024Z" />
</svg>