<?xml version="1.0" encoding="UTF-8" standalone="no"?>
<!DOCTYPE svg PUBLIC "-//W3C//DTD SVG 1.1//EN" "http://www.w3.org/Graphics/SVG/1.1/DTD/svg11.dtd">
<svg width="100%" height="100%" viewBox="0 0 480 480" version="1.1" xmlns="http://www.w3.org/2000/svg" xmlns:xlink="http://www.w3.org/1999/xlink" xml:space="preserve" xmlns:serif="http://www.serif.com/" style="fill-rule:evenodd;clip-rule:evenodd;stroke-linejoin:round;stroke-miterlimit:2;">
    <path d="M464,73C464,41.541 438.459,16 407,16L73,16C41.541,16 16,41.541 16,73L16,407C16,438.459 41.541,464 73,464L407,464C438.459,464 464,438.459 464,407L464,73Z" style="fill:#fff;"/>
    <path d="M464,296L408.533,296C401.91,296 396.533,301.377 396.533,308L396.533,344C396.533,350.623 401.91,356 408.533,356L464,356L464,296ZM16,296L16,272L70,272C76.623,272 82,266.623 82,260L82,223C82,216.377 76.623,211 70,211L16,211L16,186L69,186C89.421,186 106,202.279 106,222.7L106,222.8C121.409,221.751 139.151,215.956 152.332,188.69C168.314,162.716 178.074,138.293 227,138L227,129C227,108.579 243.579,92 264,92L411,92C431.421,92 448,108.579 448,129L448,166C448,186.421 431.421,203 411,203L264,203C243.579,203 227,186.421 227,166L227,157.379C210.483,157.352 198.044,160.55 183.766,175.239C170.943,188.432 168.282,210 149,226C214.195,235.136 234.368,257.074 258.231,277.503C282.945,298.041 303.32,316.6 372,316.371L372,309C372,288.579 388.579,272 409,272L464,272L464,73C464,41.541 438.459,16 407,16L73,16C41.541,16 16,41.541 16,73L16,407C16,438.459 41.541,464 73,464L407,464C438.459,464 464,438.459 464,407L464,382L409,382C388.579,382 372,365.421 372,345L372,336C254.867,334.256 254.621,283 197.896,258.583C174.405,248.472 153.339,243.253 106,242.344L106,259C106,279.421 89.421,296 69,296L16,296ZM423,129C423,122.377 417.623,117 411,117L263,117C256.377,117 251,122.377 251,129L251,165C251,171.623 256.377,177 263,177L411,177C417.623,177 423,171.623 423,165L423,129Z" style="fill:#8f0000;"/>
</svg>
