<?xml version="1.0" encoding="UTF-8" standalone="no"?>
<!DOCTYPE svg PUBLIC "-//W3C//DTD SVG 1.1//EN" "http://www.w3.org/Graphics/SVG/1.1/DTD/svg11.dtd">
<svg width="100%" height="100%" viewBox="0 0 480 480" version="1.1" xmlns="http://www.w3.org/2000/svg" xmlns:xlink="http://www.w3.org/1999/xlink" xml:space="preserve" xmlns:serif="http://www.serif.com/" style="fill-rule:evenodd;clip-rule:evenodd;stroke-linejoin:round;stroke-miterlimit:2;">
    <path d="M464,73C464,41.541 438.459,16 407,16L73,16C41.541,16 16,41.541 16,73L16,407C16,438.459 41.541,464 73,464L407,464C438.459,464 464,438.459 464,407L464,73Z" style="fill:#8f0000;"/>
    <path d="M372,316.371C303.32,316.6 282.945,298.041 258.231,277.503C234.368,257.074 214.195,235.136 149,226C168.282,210 170.943,188.432 183.766,175.239C198.044,160.55 210.483,157.352 227,157.379C227.011,150.85 227.011,144.513 227,138C178.074,138.293 168.314,162.716 152.332,188.69C139.151,215.956 121.409,221.751 106,222.8C106,230.155 106.067,238.867 106,242.344C153.339,243.253 174.405,248.472 197.896,258.583C254.621,283 254.867,334.256 372,336L372,316.371Z" style="fill:#fff;"/>
    <g>
        <path d="M464,272L409,272C388.579,272 372,288.579 372,309L372,345C372,365.421 388.579,382 409,382L464,382L464,272Z" style="fill:#fff;"/>
        <clipPath id="_clip1">
            <path d="M464,272L409,272C388.579,272 372,288.579 372,309L372,345C372,365.421 388.579,382 409,382L464,382L464,272Z"/>
        </clipPath>
        <g clip-path="url(#_clip1)">
            <path d="M464,296L408.533,296C401.91,296 396.533,301.377 396.533,308L396.533,344C396.533,350.623 401.91,356 408.533,356L464,356L464,296Z" style="fill:#fff;"/>
        </g>
    </g>
    <g>
        <path d="M106,223C106,202.579 89.421,186 69,186L16,186L16,296L69,296C89.421,296 106,279.421 106,259L106,223Z" style="fill:#fff;"/>
        <clipPath id="_clip2">
            <path d="M106,223C106,202.579 89.421,186 69,186L16,186L16,296L69,296C89.421,296 106,279.421 106,259L106,223Z"/>
        </clipPath>
        <g clip-path="url(#_clip2)">
            <path d="M82,223C82,216.377 76.623,211 70,211L16,211L16,272L70,272C76.623,272 82,266.623 82,260L82,223Z" style="fill:#fff;"/>
        </g>
    </g>
    <g>
        <path d="M448,129C448,108.579 431.421,92 411,92L264,92C243.579,92 227,108.579 227,129L227,166C227,186.421 243.579,203 264,203L411,203C431.421,203 448,186.421 448,166L448,129Z" style="fill:#fff;"/>
        <clipPath id="_clip3">
            <path d="M448,129C448,108.579 431.421,92 411,92L264,92C243.579,92 227,108.579 227,129L227,166C227,186.421 243.579,203 264,203L411,203C431.421,203 448,186.421 448,166L448,129Z"/>
        </clipPath>
        <g clip-path="url(#_clip3)">
            <path d="M423,129C423,122.377 417.623,117 411,117L263,117C256.377,117 251,122.377 251,129L251,165C251,171.623 256.377,177 263,177L411,177C417.623,177 423,171.623 423,165L423,129Z" style="fill:#fff;"/>
        </g>
    </g>
</svg>
