<?xml version="1.0" encoding="UTF-8" standalone="no"?>
<!DOCTYPE svg PUBLIC "-//W3C//DTD SVG 1.1//EN" "http://www.w3.org/Graphics/SVG/1.1/DTD/svg11.dtd">
<svg width="100%" height="100%" viewBox="0 0 172 172" version="1.1" xmlns="http://www.w3.org/2000/svg" xmlns:xlink="http://www.w3.org/1999/xlink" xml:space="preserve" xmlns:serif="http://www.serif.com/" style="fill-rule:evenodd;clip-rule:evenodd;stroke-linejoin:round;stroke-miterlimit:2;">
    <path d="M124.796,55.307L92.565,36.258C88.521,33.867 83.479,33.867 79.436,36.258L47.208,55.307C43.123,57.755 40.623,62.189 40.644,66.952L40.644,105.051C40.644,109.851 43.147,114.287 47.208,116.691L79.436,135.741C83.479,138.133 88.521,138.133 92.565,135.741L124.796,116.691C128.879,114.243 131.377,109.811 131.356,105.051L131.356,66.952C131.356,62.148 128.858,57.712 124.796,55.307ZM85.015,81.511C82.978,82.72 81.712,84.962 81.712,87.366L81.712,125.573C81.712,126.183 81.064,126.563 80.549,126.257L51.492,109.084C50.09,108.255 49.224,106.713 49.224,105.051L49.224,66.952C49.224,65.286 50.09,63.748 51.492,62.915L83.728,43.865C85.129,43.037 86.875,43.037 88.276,43.865L117.329,61.039C117.568,61.185 117.714,61.446 117.714,61.725C117.714,62.006 117.568,62.267 117.329,62.412L85.015,81.511Z" style="fill:#f90;"/>
</svg>
