<svg role="img" viewBox="0 0 24 24" xmlns="http://www.w3.org/2000/svg">
  <path d="M7.158,24L0.182,17.002L0.182,7.106L7.158,0.108L17.024,0.108L24,7.106L24,17.002L17.024,24L7.158,24Z" />
  <path fill="#ffc038" d="M6.788,23.206L0,16.418L0,6.818L6.788,0.029L16.388,0.029L23.177,6.818L23.177,16.418L16.388,23.206L6.788,23.206Z" />
  <path fill="#fff" d="M10.409,8.425C10.416,8.651 10.449,8.878 10.516,9.096C11.292,9.366 12.489,9.384 13.161,9.149C13.234,8.928 13.272,8.698 13.282,8.467C12.891,8.59 12.426,8.646 11.961,8.646C11.403,8.646 10.846,8.565 10.409,8.425ZM13.066,7.088C12.991,6.851 12.905,6.639 12.823,6.467C12.483,6.538 12.115,6.573 11.75,6.573C11.429,6.573 11.112,6.546 10.823,6.497C10.749,6.655 10.673,6.843 10.605,7.052C11.308,7.252 12.326,7.293 13.066,7.088Z" />
  <path d="M10.67,9.557C10.827,9.828 11.053,10.074 11.372,10.276C11.372,10.276 11.562,10.428 11.813,10.42C12.063,10.427 12.254,10.276 12.254,10.276C12.553,10.087 12.771,9.859 12.926,9.608C12.629,9.673 12.289,9.706 11.939,9.706C11.507,9.706 11.063,9.656 10.67,9.557ZM11.951,7.558C11.441,7.558 10.931,7.491 10.513,7.373C10.464,7.574 10.427,7.785 10.409,8.001C11.164,8.278 12.45,8.341 13.266,8.042C13.25,7.825 13.216,7.611 13.169,7.409C12.8,7.51 12.376,7.558 11.951,7.558ZM12.975,4.434C12.89,4.24 12.792,4.095 12.792,4.095C12.777,4.079 12.759,4.065 12.74,4.051C12.795,3.918 12.826,3.771 12.826,3.616C12.826,3.176 12.579,2.797 12.225,2.634L12.502,1.671L13.304,1.641C13.333,1.64 13.354,1.617 13.354,1.588C13.353,1.56 13.329,1.539 13.301,1.539L12.465,1.57C12.445,1.571 12.428,1.582 12.42,1.601L11.955,2.555C11.915,2.55 11.875,2.547 11.834,2.547C11.793,2.547 11.753,2.55 11.714,2.556L11.248,1.601C11.24,1.583 11.223,1.571 11.202,1.57L10.367,1.539C10.339,1.539 10.315,1.56 10.314,1.588C10.313,1.617 10.335,1.64 10.364,1.641L11.166,1.671L11.443,2.634C11.09,2.797 10.842,3.176 10.842,3.616C10.842,3.771 10.873,3.918 10.928,4.05C10.909,4.065 10.891,4.079 10.877,4.095C10.877,4.095 10.78,4.24 10.697,4.443C9.108,4.906 4.951,5.488 5.415,6.771C5.93,8.192 8.741,7.757 9.211,7.371C9.865,6.835 10.417,6.333 10.758,5.934C10.787,6.001 10.818,6.062 10.848,6.117C11.447,6.224 12.193,6.224 12.808,6.085C12.83,6.04 12.851,5.989 12.873,5.936C13.216,6.33 13.757,6.82 14.394,7.343C14.864,7.728 17.674,8.163 18.189,6.742C18.648,5.478 14.61,4.893 12.975,4.434Z" />
  <path d="M11.313,11.398L11.377,15.093C11.378,15.15 11.366,15.191 11.341,15.216C11.316,15.242 11.276,15.256 11.219,15.257L10.572,15.268C10.516,15.269 10.474,15.257 10.449,15.232C10.423,15.207 10.41,15.166 10.409,15.11L10.344,11.415C10.343,11.359 10.355,11.317 10.38,11.292C10.405,11.266 10.446,11.253 10.502,11.252L11.149,11.24C11.206,11.239 11.247,11.251 11.273,11.276C11.298,11.301 11.312,11.342 11.313,11.398ZM13.865,11.354L13.929,15.049C13.93,15.105 13.918,15.146 13.894,15.172C13.869,15.198 13.828,15.211 13.772,15.212L13.125,15.223C13.068,15.224 13.027,15.212 13.001,15.188C12.975,15.163 12.962,15.122 12.961,15.066L12.897,11.371C12.896,11.314 12.908,11.273 12.933,11.247C12.957,11.222 12.998,11.208 13.055,11.207L13.702,11.196C13.758,11.195 13.799,11.207 13.825,11.232C13.851,11.257 13.864,11.297 13.865,11.354ZM7.249,20.23L6.646,20.23C6.595,20.23 6.558,20.218 6.535,20.196C6.512,20.173 6.501,20.136 6.501,20.084L6.501,17.463C6.501,17.411 6.512,17.374 6.535,17.351C6.558,17.329 6.595,17.317 6.646,17.317L7.298,17.317C7.341,17.317 7.377,17.326 7.405,17.345C7.433,17.364 7.46,17.395 7.484,17.438L7.848,18.098C7.861,18.122 7.873,18.14 7.882,18.15C7.892,18.161 7.905,18.167 7.921,18.167L7.957,18.167C7.973,18.167 7.986,18.161 7.996,18.15C8.005,18.14 8.016,18.122 8.03,18.098L8.39,17.438C8.414,17.395 8.441,17.364 8.469,17.345C8.497,17.326 8.533,17.317 8.576,17.317L9.232,17.317C9.283,17.317 9.32,17.329 9.343,17.351C9.366,17.374 9.377,17.411 9.377,17.463L9.377,20.084C9.377,20.136 9.366,20.173 9.343,20.196C9.32,20.218 9.283,20.23 9.232,20.23L8.608,20.23C8.557,20.23 8.52,20.218 8.497,20.196C8.474,20.173 8.463,20.136 8.463,20.084L8.463,18.66L8.224,19.101C8.2,19.147 8.171,19.18 8.137,19.2C8.103,19.221 8.061,19.231 8.01,19.231L7.848,19.231C7.797,19.231 7.754,19.221 7.72,19.2C7.687,19.18 7.658,19.147 7.633,19.101L7.395,18.66L7.395,20.084C7.395,20.136 7.383,20.173 7.36,20.196C7.337,20.218 7.3,20.23 7.249,20.23ZM11.457,20.594L10.834,20.594C10.782,20.594 10.745,20.583 10.722,20.56C10.699,20.537 10.688,20.5 10.688,20.448L10.688,20.226C10.375,20.18 10.164,20.086 10.055,19.945C9.946,19.803 9.891,19.631 9.891,19.429L9.891,18.086C9.891,17.962 9.909,17.849 9.946,17.748C9.982,17.647 10.047,17.56 10.14,17.487C10.233,17.414 10.362,17.358 10.526,17.317C10.691,17.277 10.898,17.256 11.149,17.256C11.4,17.256 11.607,17.277 11.77,17.317C11.933,17.358 12.061,17.414 12.155,17.487C12.248,17.56 12.312,17.647 12.349,17.748C12.385,17.849 12.403,17.962 12.403,18.086L12.403,19.429C12.403,19.531 12.391,19.626 12.367,19.714C12.343,19.802 12.301,19.879 12.242,19.947C12.182,20.014 12.101,20.072 11.997,20.121C11.893,20.169 11.761,20.204 11.602,20.226L11.602,20.448C11.602,20.5 11.591,20.537 11.568,20.56C11.545,20.583 11.508,20.594 11.457,20.594ZM10.809,18.235L10.809,19.34C10.809,19.394 10.83,19.439 10.87,19.475C10.91,19.512 11.004,19.53 11.149,19.53C11.295,19.53 11.388,19.512 11.428,19.475C11.469,19.439 11.489,19.394 11.489,19.34L11.489,18.235C11.489,18.184 11.469,18.14 11.428,18.104C11.388,18.068 11.295,18.049 11.149,18.049C11.004,18.049 10.91,18.068 10.87,18.104C10.83,18.14 10.809,18.184 10.809,18.235ZM14.272,20.23L13.617,20.23C13.566,20.23 13.529,20.218 13.506,20.196C13.483,20.173 13.471,20.136 13.471,20.084L13.471,18.098L12.877,18.098C12.825,18.098 12.788,18.086 12.765,18.063C12.743,18.041 12.731,18.003 12.731,17.952L12.731,17.463C12.731,17.411 12.743,17.374 12.765,17.351C12.788,17.329 12.825,17.317 12.877,17.317L15.013,17.317C15.064,17.317 15.101,17.329 15.124,17.351C15.147,17.374 15.158,17.411 15.158,17.463L15.158,17.952C15.158,18.003 15.147,18.041 15.124,18.063C15.101,18.086 15.064,18.098 15.013,18.098L14.418,18.098L14.418,20.084C14.418,20.136 14.407,20.173 14.384,20.196C14.361,20.218 14.324,20.23 14.272,20.23ZM16.926,20.23L16.271,20.23C16.22,20.23 16.183,20.218 16.16,20.196C16.137,20.173 16.125,20.136 16.125,20.084L16.125,18.098L15.531,18.098C15.479,18.098 15.442,18.086 15.419,18.063C15.397,18.041 15.385,18.003 15.385,17.952L15.385,17.463C15.385,17.411 15.397,17.374 15.419,17.351C15.442,17.329 15.479,17.317 15.531,17.317L17.667,17.317C17.718,17.317 17.755,17.329 17.778,17.351C17.801,17.374 17.812,17.411 17.812,17.463L17.812,17.952C17.812,18.003 17.801,18.041 17.778,18.063C17.755,18.086 17.718,18.098 17.667,18.098L17.072,18.098L17.072,20.084C17.072,20.136 17.061,20.173 17.038,20.196C17.015,20.218 16.978,20.23 16.926,20.23Z" />
</svg>