<svg width="100%" height="100%" viewBox="0 0 480 205" version="1.1" xmlns="http://www.w3.org/2000/svg">
    <style>
        #cloud-1 {
            fill: #ffbf49;
        }

        #cloud-2 {
            fill: #ffa500;
        }

        #cloud-3 {
            fill: #ffbe7c;
        }

        @media (prefers-color-scheme: dark) {
            path {
                fill: #fff;
                stroke: #30363d;
                stroke-width: 2px;
            }
        }
    </style>
    <g>
        <path id="cloud-1" d="M208.632,85.967C201.388,49.598 169.11,22.295 130.334,22.295C99.547,22.295 72.808,39.583 59.492,64.883C27.428,68.256 2.5,95.138 2.5,127.712C2.5,162.605 31.156,190.962 66.417,190.962L204.903,190.962C234.305,190.962 258.167,167.348 258.167,138.253C258.167,110.423 236.329,87.864 208.632,85.967Z" />
        <path id="cloud-2" d="M388.287,65.923C381.09,29.411 349.023,2 310.5,2C279.914,2 253.35,19.357 240.121,44.756C208.265,48.143 183.5,75.131 183.5,107.833C183.5,142.864 211.969,171.333 247,171.333L384.583,171.333C413.793,171.333 437.499,147.626 437.499,118.416C437.499,90.476 415.803,67.828 388.287,65.923Z" />
        <path id="cloud-3" d="M446.694,137.015C442.189,114.159 422.115,97 398,97C378.854,97 362.225,107.865 353.944,123.765C334.003,125.885 318.5,142.779 318.5,163.25C318.5,185.179 336.321,203 358.25,203L444.375,203C462.66,203 477.5,188.16 477.5,169.875C477.5,152.385 463.919,138.208 446.694,137.015Z" />
    </g>
</svg>