<?xml version="1.0" encoding="UTF-8" standalone="no"?>
<!DOCTYPE svg PUBLIC "-//W3C//DTD SVG 1.1//EN" "http://www.w3.org/Graphics/SVG/1.1/DTD/svg11.dtd">
<svg width="100%" height="100%" viewBox="0 0 48 35" version="1.1" xmlns="http://www.w3.org/2000/svg" xmlns:xlink="http://www.w3.org/1999/xlink" xml:space="preserve" xmlns:serif="http://www.serif.com/" style="fill-rule:evenodd;clip-rule:evenodd;stroke-linejoin:round;stroke-miterlimit:2;">
    <path d="M12.55,33.5C9.617,33.5 7.125,32.475 5.075,30.425C3.025,28.375 2,25.883 2,22.95C2,20.25 2.842,17.958 4.525,16.075C6.208,14.192 8.317,13.017 10.85,12.55C11.45,9.417 12.992,6.792 15.475,4.675C17.958,2.558 20.817,1.5 24.05,1.5C27.75,1.5 30.9,2.858 33.5,5.575C36.1,8.292 37.4,11.567 37.4,15.4L37.4,16.6C39.9,16.6 41.958,17.408 43.575,19.025C45.192,20.642 46,22.65 46,25.05C46,27.35 45.167,29.333 43.5,31C41.833,32.667 39.85,33.5 37.55,33.5L12.55,33.5ZM12.55,30.5L37.55,30.5C39.05,30.5 40.333,29.967 41.4,28.9C42.467,27.833 43,26.55 43,25.05C43,23.55 42.467,22.267 41.4,21.2C40.333,20.133 39.05,19.6 37.55,19.6L34.4,19.6L34.4,15.4C34.4,12.467 33.408,9.917 31.425,7.75C29.442,5.583 26.983,4.5 24.05,4.5C21.717,4.5 19.567,5.225 17.6,6.675C15.633,8.125 14.35,10.067 13.75,12.5C16.417,12.867 18.617,13.933 20.35,15.7C22.083,17.467 22.95,19.733 22.95,22.5L19.95,22.5C19.95,20.4 19.217,18.692 17.75,17.375C16.283,16.058 14.5,15.4 12.4,15.4C10.3,15.4 8.542,16.133 7.125,17.6C5.708,19.067 5,20.85 5,22.95C5,25.05 5.733,26.833 7.2,28.3C8.667,29.767 10.45,30.5 12.55,30.5Z" style="fill:#808080;fill-rule:nonzero;"/>
</svg>
