<svg viewBox="0 0 256 256" version="1.1" xmlns="http://www.w3.org/2000/svg" xml:space="preserve">
    <style type="text/css">
        path { fill: #ff9900; }

        @media (prefers-color-scheme: dark) {
            path { fill: #ffffff; }
        }

        @media (forced-colors: active) {
            path { fill: canvasText; }
        }
    </style>
    <path d="M224.368,51.76L144.304,4.448C134.256,-1.488 121.744,-1.488 111.696,4.448L31.648,51.76C21.504,57.84 15.296,68.864 15.344,80.688L15.344,175.312C15.344,187.232 21.568,198.256 31.648,204.224L111.696,251.536C121.744,257.488 134.256,257.488 144.304,251.536L224.368,204.224C234.496,198.144 240.704,187.136 240.656,175.312L240.656,80.688C240.656,68.752 234.448,57.744 224.368,51.76ZM125.552,116.848C120.496,119.856 117.344,125.424 117.344,131.392L117.344,226.288C117.344,227.808 115.744,228.752 114.464,227.984L42.288,185.328C38.816,183.28 36.656,179.44 36.656,175.312L36.656,80.688C36.656,76.56 38.816,72.736 42.288,70.656L122.352,23.344C125.84,21.296 130.176,21.296 133.648,23.344L205.808,66C206.4,66.368 206.768,67.008 206.768,67.712C206.768,68.4 206.4,69.056 205.808,69.408L125.552,116.848Z" />
</svg>